<?xml version="1.0" encoding="utf-8"?>
<!-- Generator: Adobe Illustrator 16.0.0, SVG Export Plug-In . SVG Version: 6.00 Build 0)  -->
<!DOCTYPE svg PUBLIC "-//W3C//DTD SVG 1.1//EN" "http://www.w3.org/Graphics/SVG/1.1/DTD/svg11.dtd">
<svg version="1.1" xmlns="http://www.w3.org/2000/svg" xmlns:xlink="http://www.w3.org/1999/xlink" x="0px" y="0px"
	 width="283.46px" height="283.46px" viewBox="0 0 283.46 283.46" enable-background="new 0 0 283.46 283.46" xml:space="preserve">
<g id="Layer_1">
</g>
<g id="illa">
	<g id="POLYLINE_51_">
		<polygon stroke="#000000" stroke-width="0.5" stroke-linecap="round" stroke-linejoin="round" stroke-miterlimit="10" points="
			195.738,176.711 193.299,176.725 185.215,168.689 185.205,163.107 185.197,157.514 185.195,151.986 185.191,146.459 
			185.191,141.388 185.191,139.565 185.189,136.131 185.188,134.176 185.182,128.855 185.174,122.448 185.168,119.622 
			193.258,111.528 194.242,111.528 200.865,111.508 207.986,111.484 216.869,111.46 226.307,111.439 228.461,111.436 
			233.303,111.425 235.455,111.421 241.553,111.409 241.701,111.371 241.906,111.312 242.084,111.266 242.244,111.242 
			242.457,111.256 242.678,111.35 242.875,111.503 242.971,111.643 250.299,118.937 250.496,118.994 250.6,119.104 250.738,119.271 
			250.85,119.506 250.879,119.757 250.885,119.992 250.84,120.182 250.787,120.36 250.77,129.32 250.748,138.511 250.746,140.492 
			250.734,145.438 250.729,147.508 250.725,149.072 250.715,152.66 250.711,154.395 250.697,159.846 250.684,166.635 
			250.682,167.271 250.682,167.418 250.666,167.604 250.613,167.803 250.547,167.988 250.422,168.164 250.336,168.32 
			243.107,176.221 242.961,176.361 242.771,176.473 242.566,176.568 242.295,176.652 242.039,176.674 236.996,176.754 
			231.518,176.764 226.637,176.754 221.525,176.723 214.629,176.666 207.775,176.65 202.809,176.668 		"/>
	</g>
	<g id="POLYLINE_50_">
		<polygon stroke="#000000" stroke-width="0.5" stroke-linecap="round" stroke-linejoin="round" stroke-miterlimit="10" points="
			173.947,154.932 173.918,157.266 173.889,159.551 173.807,166.225 173.775,168.693 165.494,176.664 152.52,176.701 
			141.091,176.758 129.524,176.799 123.936,176.795 118.338,176.785 116.502,176.781 109.582,169.895 108.298,168.617 
			108.306,165.414 108.318,159.85 108.333,154.293 108.348,149.104 108.365,144.078 108.386,138.96 108.408,134.517 
			108.432,130.014 108.453,126.597 108.465,124.435 108.471,123.509 108.477,122.223 108.481,121.377 108.488,119.366 
			110.223,117.625 112.013,115.813 114.547,113.239 116.396,111.382 123.083,111.369 129.381,111.35 132.529,111.342 
			137.651,111.33 140.966,111.325 146.279,111.319 152.752,111.316 159.365,111.313 165.109,111.312 165.404,111.318 
			165.705,111.355 166.008,111.393 166.279,111.482 166.523,111.607 166.676,111.726 173.898,118.973 174.127,119.239 
			174.244,119.453 174.34,119.719 174.404,120.058 174.432,120.375 174.42,121.143 174.348,126.207 174.246,133.149 
			174.146,139.906 174.031,148.313 174.008,150.152 174.002,150.494 173.949,154.688 		"/>
	</g>
	<g id="POLYLINE_49_">
		<polygon stroke="#000000" stroke-width="0.5" stroke-linecap="round" stroke-linejoin="round" stroke-miterlimit="10" points="
			108.293,47.016 108.291,46.612 108.268,43.159 108.956,41.396 112.21,38.061 115.361,34.836 117.266,34.042 120.988,34.047 
			127.746,34.055 133.613,34.057 140.445,34.046 147.229,34.033 153.994,34.03 160.654,34.035 165.061,34.044 166.592,34.558 
			170.012,38.057 173.449,41.565 174.057,43.15 174.055,47.386 174.037,54.65 174.02,59.821 173.998,63.22 173.973,66.489 
			173.93,71.415 173.877,81.714 173.871,83.137 173.869,85.506 173.867,86.793 173.857,91.95 165.848,99.997 163.744,99.995 
			158.676,99.99 153.162,99.982 147.156,99.956 141.096,99.917 130.748,99.882 129.145,99.876 127.678,99.875 116.858,99.895 
			115.942,98.999 109.205,92.387 108.508,91.692 108.485,84.215 108.474,79.112 108.468,75.824 108.46,72.696 108.443,67.529 
			108.394,59.131 108.365,55.799 108.336,52.519 108.333,52.117 108.32,50.324 108.316,49.934 108.307,48.825 		"/>
	</g>
	<g id="POLYLINE_48_">
		<polygon stroke="#000000" stroke-width="0.5" stroke-linecap="round" stroke-linejoin="round" stroke-miterlimit="10" points="
			196.723,34.014 200.191,34.016 203.605,34.018 206.889,34.023 213.861,34.04 219.324,34.06 224.43,34.077 229.461,34.09 
			233.094,34.097 236.539,34.101 242.355,34.095 244.027,34.673 250.637,41.645 251.305,43.117 251.297,43.921 251.244,50.565 
			251.207,57.532 251.182,64.391 251.158,69.789 251.125,75.314 251.072,82.237 251.01,88.955 250.988,91.057 250.719,92.17 
			248.787,94.083 245.113,97.744 243.273,99.576 243.014,99.799 242.203,100.031 237.248,100.04 230.584,100.036 223.875,100.022 
			218.02,100.009 211.553,99.993 204.902,99.976 199.502,99.968 193.818,99.965 193.461,99.965 185.154,91.582 185.158,90.962 
			185.176,87.479 185.191,84.159 185.207,80.756 185.227,76.47 185.234,75.175 185.277,62.919 185.311,54.981 185.344,47.712 
			185.357,44.229 185.369,42.167 193.508,34.012 		"/>
	</g>
	<g id="POLYLINE_47_">
		<polygon stroke="#000000" stroke-width="0.5" stroke-linecap="round" stroke-linejoin="round" stroke-miterlimit="10" points="
			38.249,175.414 36.647,173.826 35.717,172.904 31.511,168.734 31.49,163.678 31.461,158.625 31.428,151.932 31.412,145.086 
			31.413,141.602 31.417,138.268 31.427,134.865 31.439,131.544 31.456,126.247 31.46,120.84 31.454,119.245 36.73,113.838 
			39.423,111.079 45.221,111.09 52.453,111.118 59.788,111.181 61.592,111.203 68.813,111.276 75.929,111.312 80.411,111.322 
			84.921,111.318 88.069,111.312 89.815,112.032 93.733,115.938 96.471,118.652 97.112,120.233 97.092,124.784 97.076,134.893 
			97.07,143.396 97.067,149.705 97.064,156.127 97.06,161.326 97.06,163.346 97.058,164.5 97.057,166.42 97.055,168.701 
			88.826,176.859 84,176.848 75.947,176.828 69.003,176.811 62.927,176.793 45.51,176.729 39.555,176.709 38.657,175.818 
			38.415,175.578 38.305,175.469 		"/>
	</g>
	<g id="POLYLINE_46_">
		<polygon stroke="#000000" stroke-width="0.5" stroke-linecap="round" stroke-linejoin="round" stroke-miterlimit="10" points="
			51.048,99.779 39.634,99.75 36.964,97.076 31.546,91.655 31.54,88.57 31.537,86.094 31.539,64.734 31.531,58.59 31.508,47.298 
			31.493,43.51 31.487,42.404 31.858,41.691 32.375,41.182 38.542,35.117 39.28,34.391 40.188,34.109 40.934,34.11 44.168,34.113 
			49.724,34.11 54.907,34.102 57.366,34.094 61.113,34.076 63.571,34.06 72.228,34.003 79.075,33.978 86.588,33.967 87.933,33.969 
			88.241,33.984 88.52,34.03 88.771,34.098 89.035,34.232 89.255,34.351 89.485,34.522 89.631,34.677 96.414,41.473 96.586,41.676 
			96.664,41.824 96.771,42.019 96.886,42.264 96.962,42.465 97.024,42.747 97.065,43.022 97.075,43.229 97.1,45.315 97.129,49.346 
			97.152,57.448 97.141,64.336 97.133,66.012 97.112,69.598 97.101,71.269 97.081,76.967 97.084,82.833 97.103,88.492 97.113,90.22 
			96.988,90.285 97.04,90.447 97.076,90.698 97.1,90.978 97.072,91.339 96.948,91.759 96.752,92.119 96.534,92.413 96.243,92.668 
			95.98,92.844 95.806,92.93 95.822,93.136 90.414,98.479 90.313,98.506 90.212,98.764 90.111,98.963 89.943,99.212 89.748,99.439 
			89.529,99.644 89.31,99.768 89.046,99.893 88.784,99.971 88.44,100.021 88.125,100.049 87.767,100.011 87.451,99.898 
			87.231,99.794 87.144,99.853 85.714,99.848 83.945,99.845 80.486,99.839 78.873,99.837 72.025,99.832 65.093,99.822 
			51.816,99.782 		"/>
	</g>
	<g id="POLYLINE_45_">
		<polygon stroke="#000000" stroke-width="0.5" stroke-linecap="round" stroke-linejoin="round" stroke-miterlimit="10" points="
			96.85,209.674 96.817,216.197 96.812,231.289 96.838,239.068 96.845,242.525 96.846,244.67 96.83,244.832 96.795,245 
			96.758,245.096 96.713,245.221 96.618,245.354 96.522,245.471 96.419,245.559 89.235,252.973 89.132,253.053 89.008,253.141 
			88.867,253.221 88.742,253.271 88.58,253.328 88.418,253.355 88.264,253.355 85.366,253.342 77.815,253.301 72.271,253.275 
			63.33,253.283 55.054,253.371 45.624,253.471 40.273,253.486 40.157,253.492 39.981,253.477 39.864,253.447 39.733,253.402 
			39.579,253.35 39.463,253.299 39.338,253.217 39.192,253.1 39.083,252.982 31.74,245.537 31.676,245.469 31.606,245.377 
			31.513,245.197 31.442,245.021 31.396,244.879 31.351,244.697 31.328,244.547 31.322,244.447 31.327,241.541 31.332,234.799 
			31.327,223.756 31.329,220.006 31.342,214.23 31.363,207.838 31.391,200.988 31.412,195.889 31.412,195.619 31.449,195.422 
			31.485,195.32 31.565,195.131 31.705,194.928 31.837,194.77 33.256,193.436 39.57,187.83 45.365,187.816 55.879,187.754 
			57.65,187.752 58.627,187.752 58.613,188.045 62.204,188.049 62.219,187.719 62.826,187.723 64.444,187.734 78.394,187.834 
			84.102,187.859 88.723,187.885 95.46,194.492 96.908,195.965 96.88,204.002 		"/>
	</g>
	<g id="POLYLINE_44_">
		<polygon stroke="#000000" stroke-width="0.5" stroke-linecap="round" stroke-linejoin="round" stroke-miterlimit="10" points="
			121.747,253.346 116.359,253.342 112.42,249.412 108.294,245.297 108.297,240.209 108.297,236.266 108.298,231.789 108.3,227.676 
			108.302,223.514 108.309,218.932 108.318,215.611 108.34,209.561 108.37,203.617 108.402,195.678 110.107,193.963 
			116.188,187.848 117.841,187.859 119.395,187.869 121.57,187.879 123.425,187.887 129.094,187.908 130.86,187.914 
			136.924,187.936 138.724,187.941 148.564,187.982 157.736,188.025 162.395,188.049 165.662,188.068 171.936,194.301 
			173.791,196.152 173.779,200.795 173.771,204.189 173.764,207.621 173.756,210.902 173.752,214.256 173.746,218.346 
			173.736,224.959 173.723,232.318 173.707,237.629 173.676,244.164 172.92,246.152 170.01,248.777 166.139,252.303 
			165.959,252.469 164.223,253.232 160.236,253.227 152.311,253.242 144.664,253.279 139.24,253.316 128.552,253.352 		"/>
	</g>
	<g id="POLYLINE_43_">
		<polygon stroke="#000000" stroke-width="0.5" stroke-linecap="round" stroke-linejoin="round" stroke-miterlimit="10" points="
			250.584,207.238 250.559,213.279 250.537,222.947 250.539,230.646 250.545,238.375 250.545,244.256 250.494,244.49 
			250.436,244.727 250.363,244.963 250.268,245.182 250.143,245.424 250.039,245.564 249.916,245.75 249.777,245.881 
			249.152,246.525 244.191,251.652 243.389,252.479 243.252,252.604 243.119,252.723 242.949,252.848 242.787,252.951 
			242.553,253.055 242.332,253.127 242.201,253.172 242.018,253.217 241.84,253.232 241.693,253.248 236.32,253.266 
			235.809,253.268 229.133,253.313 228.92,253.313 226.725,253.332 217.311,253.408 210.865,253.438 205.951,253.447 
			197.82,253.453 195.416,253.455 193.273,253.457 192.912,253.457 190.465,250.99 187.619,247.906 185.08,245.348 185.08,245.129 
			185.076,241.111 185.068,238.811 185.061,236.898 185.061,236.703 185.045,232.896 185.043,232.74 185.037,230.764 
			185.023,223.32 185.025,215.721 185.047,206.916 185.066,200.555 185.074,196.723 185.096,196.553 185.156,196.287 
			185.238,196.037 185.334,195.896 185.451,195.734 187.131,194.064 192.805,188.439 193.033,188.262 193.252,188.135 
			193.49,188.078 193.746,188.055 198.072,188.055 204.742,188.07 211.369,188.104 216.189,188.129 221.225,188.143 
			228.689,188.139 242.43,188.102 243.998,189.686 248.656,194.186 250.633,196.225 		"/>
	</g>
</g>
</svg>
