<?xml version="1.0" encoding="utf-8"?>
<!-- Generator: Adobe Illustrator 16.0.0, SVG Export Plug-In . SVG Version: 6.00 Build 0)  -->
<!DOCTYPE svg PUBLIC "-//W3C//DTD SVG 1.1//EN" "http://www.w3.org/Graphics/SVG/1.1/DTD/svg11.dtd">
<svg version="1.1" id="Layer_1" xmlns="http://www.w3.org/2000/svg" xmlns:xlink="http://www.w3.org/1999/xlink" x="0px" y="0px"
	 width="141.73px" height="141.73px" viewBox="0 0 141.73 141.73" enable-background="new 0 0 141.73 141.73" xml:space="preserve">
<g>
	<path fill="#7509A8" d="M71.609,12.431c-33.347,0-60.388,27.034-60.388,60.387c0,26.682,17.303,49.315,41.297,57.303
		c3.018,0.56,4.126-1.311,4.126-2.906c0-1.438-0.057-6.196-0.082-11.241c-16.8,3.651-20.346-7.125-20.346-7.125
		c-2.747-6.98-6.704-8.836-6.704-8.836c-5.479-3.748,0.412-3.673,0.412-3.673c6.063,0.427,9.258,6.226,9.258,6.226
		c5.386,9.229,14.127,6.563,17.572,5.02c0.542-3.901,2.106-6.567,3.834-8.076c-13.413-1.524-27.514-6.704-27.514-29.843
		c0-6.593,2.359-11.979,6.223-16.209c-0.627-1.521-2.693-7.663,0.585-15.98c0,0,5.071-1.622,16.61,6.19
		c4.817-1.338,9.983-2.009,15.115-2.033c5.131,0.023,10.301,0.694,15.127,2.033c11.527-7.813,16.59-6.19,16.59-6.19
		c3.287,8.317,1.221,14.46,0.594,15.98c3.871,4.229,6.215,9.616,6.215,16.209c0,23.195-14.127,28.3-27.573,29.796
		c2.166,1.873,4.096,5.549,4.096,11.183c0,8.08-0.07,14.584-0.07,16.571c0,1.607,1.088,3.49,4.148,2.898
		c23.979-7.994,41.262-30.623,41.262-57.295C131.996,39.466,104.959,12.431,71.609,12.431z"/>
	<path fill="#7509A8" d="M34.093,99.135c-0.133,0.302-0.604,0.392-1.034,0.185c-0.438-0.197-0.685-0.605-0.542-0.906
		c0.13-0.309,0.603-0.395,1.04-0.188C33.995,98.42,34.245,98.834,34.093,99.135L34.093,99.135z"/>
	<path fill="#7509A8" d="M36.54,101.863c-0.288,0.266-0.852,0.143-1.232-0.279c-0.396-0.422-0.47-0.983-0.178-1.256
		c0.297-0.266,0.844-0.141,1.238,0.279C36.763,101.033,36.84,101.592,36.54,101.863L36.54,101.863z"/>
	<path fill="#7509A8" d="M38.92,105.34c-0.37,0.259-0.976,0.019-1.35-0.52c-0.37-0.537-0.37-1.182,0.009-1.439
		c0.374-0.258,0.971-0.024,1.351,0.507C39.298,104.434,39.298,105.078,38.92,105.34L38.92,105.34z"/>
	<path fill="#7509A8" d="M42.182,108.701c-0.331,0.365-1.036,0.266-1.553-0.232c-0.527-0.485-0.675-1.178-0.344-1.543
		c0.336-0.364,1.045-0.262,1.564,0.232C42.375,107.645,42.535,108.34,42.182,108.701L42.182,108.701z"/>
	<path fill="#7509A8" d="M46.682,110.652c-0.146,0.473-0.825,0.688-1.51,0.486c-0.684-0.207-1.13-0.763-0.991-1.238
		c0.142-0.478,0.823-0.701,1.513-0.486C46.376,109.621,46.824,110.17,46.682,110.652L46.682,110.652z"/>
	<path fill="#7509A8" d="M51.625,111.014c0.018,0.498-0.563,0.909-1.281,0.92c-0.722,0.016-1.307-0.388-1.313-0.877
		c0-0.504,0.567-0.912,1.289-0.925C51.036,110.119,51.625,110.52,51.625,111.014L51.625,111.014z"/>
	<path fill="#7509A8" d="M56.223,110.23c0.086,0.485-0.413,0.983-1.126,1.117c-0.701,0.129-1.351-0.173-1.439-0.652
		c-0.087-0.498,0.421-0.998,1.121-1.127C55.493,109.445,56.132,109.736,56.223,110.23L56.223,110.23z"/>
</g>
</svg>
