<?xml version="1.0" encoding="utf-8"?>
<!-- Generator: Adobe Illustrator 16.0.0, SVG Export Plug-In . SVG Version: 6.00 Build 0)  -->
<!DOCTYPE svg PUBLIC "-//W3C//DTD SVG 1.1//EN" "http://www.w3.org/Graphics/SVG/1.1/DTD/svg11.dtd">
<svg version="1.1" id="Layer_1" xmlns="http://www.w3.org/2000/svg" xmlns:xlink="http://www.w3.org/1999/xlink" x="0px" y="0px"
	 width="141.73px" height="141.73px" viewBox="0 0 141.73 141.73" enable-background="new 0 0 141.73 141.73" xml:space="preserve">
<g>
	<path fill-rule="evenodd" clip-rule="evenodd" fill="#191717" d="M71.609,12.431c-33.347,0-60.388,27.035-60.388,60.387
		c0,26.682,17.303,49.316,41.297,57.303c3.018,0.559,4.126-1.311,4.126-2.906c0-1.439-0.056-6.197-0.082-11.242
		c-16.8,3.652-20.345-7.125-20.345-7.125c-2.747-6.98-6.705-8.836-6.705-8.836c-5.479-3.748,0.413-3.672,0.413-3.672
		c6.063,0.426,9.257,6.225,9.257,6.225c5.386,9.23,14.127,6.563,17.573,5.02c0.542-3.902,2.106-6.568,3.834-8.076
		c-13.413-1.525-27.514-6.705-27.514-29.843c0-6.593,2.359-11.98,6.223-16.209c-0.627-1.521-2.694-7.663,0.585-15.981
		c0,0,5.071-1.622,16.61,6.191c4.817-1.338,9.983-2.009,15.115-2.033c5.131,0.023,10.301,0.694,15.127,2.033
		c11.527-7.813,16.59-6.191,16.59-6.191c3.287,8.318,1.221,14.46,0.594,15.981c3.871,4.229,6.215,9.616,6.215,16.209
		c0,23.195-14.127,28.3-27.574,29.796c2.166,1.873,4.096,5.549,4.096,11.182c0,8.08-0.07,14.584-0.07,16.572
		c0,1.607,1.088,3.49,4.148,2.898c23.98-7.994,41.262-30.623,41.262-57.295C131.996,39.466,104.959,12.431,71.609,12.431z"/>
	<path fill="#191717" d="M34.093,99.135c-0.133,0.301-0.605,0.391-1.035,0.184c-0.438-0.197-0.684-0.605-0.542-0.906
		c0.13-0.309,0.603-0.395,1.04-0.189C33.995,98.42,34.245,98.834,34.093,99.135L34.093,99.135z M33.35,98.584"/>
	<path fill="#191717" d="M36.54,101.863c-0.288,0.266-0.852,0.143-1.233-0.279c-0.396-0.422-0.469-0.984-0.177-1.256
		c0.297-0.266,0.843-0.141,1.238,0.279C36.763,101.033,36.84,101.592,36.54,101.863L36.54,101.863z M35.963,101.244"/>
	<path fill="#191717" d="M38.92,105.34c-0.37,0.258-0.976,0.018-1.35-0.52c-0.37-0.537-0.37-1.182,0.009-1.439
		c0.374-0.258,0.971-0.025,1.35,0.506C39.298,104.434,39.298,105.078,38.92,105.34L38.92,105.34z M38.92,105.34"/>
	<path fill="#191717" d="M42.182,108.701c-0.331,0.365-1.036,0.266-1.552-0.232c-0.528-0.486-0.675-1.178-0.344-1.543
		c0.336-0.365,1.045-0.262,1.564,0.232C42.375,107.645,42.535,108.34,42.182,108.701L42.182,108.701z M42.182,108.701"/>
	<path fill="#191717" d="M46.682,110.652c-0.146,0.473-0.825,0.688-1.509,0.486c-0.684-0.207-1.13-0.762-0.992-1.238
		c0.142-0.477,0.824-0.701,1.513-0.486C46.376,109.621,46.824,110.17,46.682,110.652L46.682,110.652z M46.682,110.652"/>
	<path fill="#191717" d="M51.625,111.014c0.017,0.498-0.563,0.91-1.281,0.92c-0.722,0.016-1.307-0.387-1.314-0.877
		c0-0.504,0.567-0.912,1.289-0.924C51.036,110.119,51.625,110.52,51.625,111.014L51.625,111.014z M51.625,111.014"/>
	<path fill="#191717" d="M56.223,110.23c0.086,0.486-0.413,0.984-1.126,1.117c-0.701,0.129-1.35-0.172-1.439-0.652
		c-0.087-0.498,0.421-0.998,1.121-1.127C55.493,109.445,56.132,109.736,56.223,110.23L56.223,110.23z M56.223,110.23"/>
</g>
</svg>
