<?xml version="1.0" encoding="utf-8"?>
<!-- Generator: Adobe Illustrator 16.0.0, SVG Export Plug-In . SVG Version: 6.00 Build 0)  -->
<!DOCTYPE svg PUBLIC "-//W3C//DTD SVG 1.1//EN" "http://www.w3.org/Graphics/SVG/1.1/DTD/svg11.dtd">
<svg version="1.1" id="Layer_1" xmlns="http://www.w3.org/2000/svg" xmlns:xlink="http://www.w3.org/1999/xlink" x="0px" y="0px"
	 width="141.73px" height="141.73px" viewBox="0 0 141.73 141.73" enable-background="new 0 0 141.73 141.73" xml:space="preserve">
<g>
	<path fill="#7509A8" d="M70.866,26.219c14.541,0,16.263,0.057,22.005,0.317c5.311,0.242,8.194,1.129,10.112,1.875
		c2.542,0.988,4.355,2.168,6.262,4.074c1.905,1.906,3.085,3.72,4.073,6.262c0.745,1.919,1.633,4.803,1.876,10.112
		c0.262,5.742,0.315,7.465,0.315,22.006s-0.055,16.264-0.315,22.006c-0.243,5.311-1.131,8.193-1.876,10.112
		c-0.988,2.541-2.168,4.355-4.073,6.262s-3.72,3.086-6.262,4.072c-1.918,0.746-4.803,1.634-10.112,1.877
		c-5.742,0.262-7.464,0.315-22.005,0.315c-14.542,0-16.265-0.055-22.006-0.315c-5.31-0.243-8.193-1.131-10.112-1.877
		c-2.542-0.986-4.355-2.167-6.262-4.072c-1.905-1.905-3.085-3.721-4.073-6.262c-0.746-1.919-1.633-4.803-1.875-10.112
		c-0.262-5.742-0.318-7.465-0.318-22.006s0.057-16.264,0.318-22.006c0.242-5.311,1.129-8.193,1.875-10.112
		c0.988-2.542,2.168-4.355,4.073-6.262c1.906-1.905,3.72-3.086,6.262-4.074c1.919-0.746,4.803-1.633,10.112-1.875
		C54.602,26.275,56.324,26.219,70.866,26.219 M70.866,16.407c-14.791,0-16.645,0.062-22.454,0.327
		c-5.796,0.264-9.755,1.185-13.219,2.531c-3.582,1.392-6.619,3.254-9.646,6.28c-3.026,3.028-4.889,6.064-6.28,9.646
		c-1.347,3.463-2.268,7.422-2.531,13.219c-0.266,5.808-0.328,7.663-0.328,22.453s0.063,16.645,0.328,22.453
		c0.264,5.796,1.185,9.755,2.531,13.219c1.392,3.581,3.254,6.618,6.28,9.646c3.027,3.025,6.064,4.89,9.646,6.279
		c3.464,1.349,7.422,2.268,13.219,2.532c5.81,0.265,7.663,0.327,22.454,0.327c14.79,0,16.643-0.063,22.453-0.327
		c5.796-0.266,9.756-1.185,13.22-2.532c3.581-1.391,6.617-3.254,9.646-6.279c3.026-3.028,4.891-6.064,6.28-9.646
		c1.348-3.464,2.269-7.423,2.532-13.219c0.266-5.81,0.327-7.663,0.327-22.453s-0.063-16.646-0.327-22.453
		c-0.265-5.796-1.186-9.755-2.532-13.219c-1.391-3.582-3.254-6.619-6.28-9.646c-3.027-3.026-6.063-4.889-9.646-6.28
		c-3.464-1.347-7.424-2.268-13.22-2.531C87.509,16.469,85.655,16.407,70.866,16.407z M70.866,42.9
		C55.421,42.9,42.9,55.42,42.9,70.865c0,15.444,12.521,27.965,27.965,27.965S98.83,86.309,98.83,70.865
		C98.831,55.42,86.31,42.9,70.866,42.9z M70.866,89.018c-10.026,0-18.153-8.127-18.153-18.152s8.127-18.153,18.153-18.153
		c10.025,0,18.153,8.128,18.153,18.153S80.891,89.018,70.866,89.018z M106.469,41.795c0,3.609-2.926,6.535-6.533,6.535
		c-3.609,0-6.535-2.925-6.535-6.535c0-3.608,2.926-6.535,6.535-6.535C103.544,35.26,106.469,38.186,106.469,41.795z"/>
</g>
</svg>
