<?xml version="1.0" encoding="utf-8"?>
<!-- Generator: Adobe Illustrator 16.0.0, SVG Export Plug-In . SVG Version: 6.00 Build 0)  -->
<!DOCTYPE svg PUBLIC "-//W3C//DTD SVG 1.1//EN" "http://www.w3.org/Graphics/SVG/1.1/DTD/svg11.dtd">
<svg version="1.1" id="Layer_1" xmlns="http://www.w3.org/2000/svg" xmlns:xlink="http://www.w3.org/1999/xlink" x="0px" y="0px"
	 width="141.73px" height="141.73px" viewBox="0 0 141.73 141.73" enable-background="new 0 0 141.73 141.73" xml:space="preserve">
<path fill="#7509A8" d="M101.344,17.5H40.385c-12.021,0-21.771,9.75-21.771,21.771v60.959c0,12.02,9.75,21.771,21.771,21.771h60.959
	c12.024,0,21.771-9.751,21.771-21.771V39.271C123.115,27.25,113.369,17.5,101.344,17.5z M53.448,100.229H40.385V52.333h13.063
	L53.448,100.229L53.448,100.229z M46.917,46.813c-4.205,0-7.619-3.441-7.619-7.683c0-4.239,3.415-7.679,7.619-7.679
	c4.206,0,7.62,3.439,7.62,7.679C54.537,43.372,51.127,46.813,46.917,46.813z M105.698,100.229H92.635V75.831
	c0-14.668-17.416-13.556-17.416,0v24.398H62.157V52.333h13.063v7.687c6.08-11.26,30.479-12.094,30.479,10.78V100.229z"/>
</svg>
