<?xml version="1.0" encoding="utf-8"?>
<!-- Generator: Adobe Illustrator 16.0.0, SVG Export Plug-In . SVG Version: 6.00 Build 0)  -->
<!DOCTYPE svg PUBLIC "-//W3C//DTD SVG 1.1//EN" "http://www.w3.org/Graphics/SVG/1.1/DTD/svg11.dtd">
<svg version="1.1" id="Layer_1" xmlns="http://www.w3.org/2000/svg" xmlns:xlink="http://www.w3.org/1999/xlink" x="0px" y="0px"
	 width="141.73px" height="141.73px" viewBox="0 0 141.73 141.73" enable-background="new 0 0 141.73 141.73" xml:space="preserve">
<path d="M70.864,11.289c-32.903,0-59.577,26.674-59.577,59.577c0,32.903,26.674,59.575,59.577,59.575
	c32.906,0,59.578-26.672,59.578-59.575c0-32.901-26.672-59.574-59.578-59.574V11.289z M98.186,97.215
	c-1.066,1.752-3.358,2.305-5.108,1.232c-13.988-8.545-31.597-10.48-52.336-5.742c-1.998,0.455-3.99-0.797-4.445-2.797
	c-0.457-1.998,0.79-3.99,2.793-4.445c22.695-5.188,42.16-2.953,57.866,6.645C98.705,93.181,99.26,95.467,98.186,97.215z
	 M105.478,80.992c-1.346,2.188-4.205,2.877-6.39,1.533c-16.013-9.846-40.425-12.697-59.366-6.947
	c-2.457,0.742-5.051-0.643-5.797-3.094c-0.74-2.458,0.645-5.047,3.098-5.793c21.636-6.565,48.535-3.385,66.925,7.915
	C106.133,75.951,106.823,78.81,105.478,80.992L105.478,80.992z M106.104,64.099C86.903,52.694,55.222,51.645,36.89,57.21
	c-2.944,0.893-6.057-0.769-6.949-3.713c-0.893-2.945,0.769-6.056,3.714-6.951c21.044-6.389,56.03-5.154,78.136,7.969
	c2.654,1.571,3.522,4.991,1.949,7.636c-1.565,2.647-4.994,3.52-7.633,1.948H106.104z"/>
</svg>
